<svg width="55" height="60" viewBox="0 0 55 60" fill="none" xmlns="http://www.w3.org/2000/svg">
<path d="M34.4896 12.5C36.7279 12.9764 38.785 14.1706 40.3976 15.9298C42.0102 17.689 43.1049 19.9332 43.5417 22.375M34.4896 2.5C39.14 3.06359 43.4765 5.33544 46.7872 8.94252C50.0979 12.5496 52.1858 17.2775 52.7083 22.35M50.4167 42.3V49.8C50.4192 50.4963 50.2885 51.1854 50.0328 51.8234C49.7771 52.4613 49.4021 53.034 48.9318 53.5047C48.4615 53.9754 47.9063 54.3337 47.3017 54.5568C46.6971 54.7798 46.0565 54.8627 45.4208 54.8C38.369 53.9641 31.5952 51.3354 25.6437 47.125C20.1067 43.2867 15.4122 38.1654 11.8937 32.125C8.02077 25.603 5.61055 18.1775 4.85832 10.45C4.80105 9.75867 4.87637 9.0619 5.07947 8.40406C5.28257 7.74622 5.60901 7.14172 6.03799 6.62905C6.46698 6.11638 6.98913 5.70677 7.57118 5.4263C8.15323 5.14584 8.78244 5.00065 9.41874 5H16.2937C17.4059 4.98806 18.4841 5.4177 19.3274 6.20883C20.1706 6.99997 20.7214 8.09862 20.8771 9.3C21.1672 11.7002 21.7054 14.0568 22.4812 16.325C22.7896 17.2198 22.8563 18.1923 22.6735 19.1272C22.4908 20.0621 22.0661 20.9203 21.45 21.6L18.5396 24.775C21.8019 31.0339 26.5523 36.2161 32.2896 39.775L35.2 36.6C35.8231 35.9278 36.6097 35.4646 37.4667 35.2652C38.3237 35.0658 39.2152 35.1386 40.0354 35.475C42.1146 36.3214 44.2748 36.9084 46.475 37.225C47.5882 37.3963 48.6049 38.008 49.3316 38.9437C50.0584 39.8795 50.4445 41.0739 50.4167 42.3Z" stroke="#143A27" stroke-width="4" stroke-linecap="round" stroke-linejoin="round"/>
</svg>
