<svg width="62" height="20" viewBox="0 0 62 20" fill="none" xmlns="http://www.w3.org/2000/svg">
<g filter="url(#filter0_d_159_578)">
<path d="M25.6765 10.6805C25.6765 13.5107 23.4535 15.5963 20.7255 15.5963C17.9974 15.5963 15.7744 13.5107 15.7744 10.6805C15.7744 7.83027 17.9974 5.76465 20.7255 5.76465C23.4535 5.76465 25.6765 7.83027 25.6765 10.6805ZM23.5092 10.6805C23.5092 8.91184 22.2208 7.70172 20.7255 7.70172C19.2301 7.70172 17.9417 8.91184 17.9417 10.6805C17.9417 12.4314 19.2301 13.6592 20.7255 13.6592C22.2208 13.6592 23.5092 12.4292 23.5092 10.6805Z" fill="#EA4335"/>
<path d="M36.6521 10.6805C36.6521 13.5107 34.4291 15.5963 31.701 15.5963C28.973 15.5963 26.75 13.5107 26.75 10.6805C26.75 7.83248 28.973 5.76465 31.701 5.76465C34.4291 5.76465 36.6521 7.83027 36.6521 10.6805ZM34.4848 10.6805C34.4848 8.91184 33.1964 7.70172 31.701 7.70172C30.2057 7.70172 28.9173 8.91184 28.9173 10.6805C28.9173 12.4314 30.2057 13.6592 31.701 13.6592C33.1964 13.6592 34.4848 12.4292 34.4848 10.6805Z" fill="#FBBC05"/>
<path d="M46.9615 6.06164V14.8871C46.9615 18.5174 44.812 20.0001 42.2708 20.0001C39.8787 20.0001 38.439 18.4066 37.8961 17.1034L39.783 16.321C40.1191 17.1211 40.9424 18.0653 42.2686 18.0653C43.8952 18.0653 44.9032 17.0657 44.9032 15.184V14.477H44.8276C44.3425 15.0732 43.4079 15.5941 42.2285 15.5941C39.7608 15.5941 37.5 13.4531 37.5 10.6982C37.5 7.92335 39.7608 5.76465 42.2285 5.76465C43.4057 5.76465 44.3402 6.28549 44.8276 6.86395H44.9032V6.06385H46.9615V6.06164ZM45.0567 10.6982C45.0567 8.96724 43.8974 7.70172 42.4221 7.70172C40.9268 7.70172 39.674 8.96724 39.674 10.6982C39.674 12.4114 40.9268 13.6592 42.4221 13.6592C43.8974 13.6592 45.0567 12.4114 45.0567 10.6982Z" fill="#4285F4"/>
<path d="M50.9839 0.888672V15.2948H48.87V0.888672H50.9839Z" fill="#34A853"/>
<path d="M59.8276 12.2982L61.5098 13.4152C60.9668 14.2153 59.6584 15.5938 57.3976 15.5938C54.5939 15.5938 52.5 13.4351 52.5 10.678C52.5 7.75469 54.6117 5.76221 57.1551 5.76221C59.7163 5.76221 60.9691 7.79236 61.3785 8.88945L61.6033 9.44796L55.0056 12.1696C55.5107 13.1559 56.2962 13.659 57.3976 13.659C58.5013 13.659 59.2668 13.1182 59.8276 12.2982ZM54.6495 10.5295L59.0599 8.70549C58.8173 8.09157 58.0875 7.66382 57.2285 7.66382C56.1271 7.66382 54.5939 8.63235 54.6495 10.5295Z" fill="#EA4335"/>
<path d="M7.77259 9.40153V7.31597H14.8287C14.8977 7.67945 14.9333 8.10941 14.9333 8.57484C14.9333 10.1396 14.5038 12.0744 13.1197 13.453C11.7735 14.8493 10.0534 15.594 7.77482 15.594C3.5514 15.594 0 12.1675 0 7.96092C0 3.75433 3.5514 0.327881 7.77482 0.327881C10.1113 0.327881 11.7757 1.24101 13.0263 2.43118L11.5487 3.90282C10.652 3.06505 9.43703 2.41345 7.77259 2.41345C4.68848 2.41345 2.27637 4.88909 2.27637 7.96092C2.27637 11.0328 4.68848 13.5084 7.77259 13.5084C9.77304 13.5084 10.9123 12.7083 11.6422 11.9813C12.2341 11.3918 12.6235 10.5496 12.777 9.39932L7.77259 9.40153Z" fill="#4285F4"/>
</g>
<defs>
<filter id="filter0_d_159_578" x="-3" y="-2.67212" width="67.6033" height="25.6724" filterUnits="userSpaceOnUse" color-interpolation-filters="sRGB">
<feFlood flood-opacity="0" result="BackgroundImageFix"/>
<feColorMatrix in="SourceAlpha" type="matrix" values="0 0 0 0 0 0 0 0 0 0 0 0 0 0 0 0 0 0 127 0" result="hardAlpha"/>
<feOffset/>
<feGaussianBlur stdDeviation="1.5"/>
<feColorMatrix type="matrix" values="0 0 0 0 1 0 0 0 0 1 0 0 0 0 1 0 0 0 1 0"/>
<feBlend mode="normal" in2="BackgroundImageFix" result="effect1_dropShadow_159_578"/>
<feBlend mode="normal" in="SourceGraphic" in2="effect1_dropShadow_159_578" result="shape"/>
</filter>
</defs>
</svg>
