<svg width="49" height="49" viewBox="0 0 49 49" fill="none" xmlns="http://www.w3.org/2000/svg">
<path fill-rule="evenodd" clip-rule="evenodd" d="M47.3768 24.7446C47.3768 23.0324 47.2231 21.386 46.9378 19.8055H24.1963V29.1458H37.1914C36.6317 32.1641 34.9304 34.7214 32.3731 36.4336V42.4921H40.1768C44.7426 38.2885 47.3768 32.0982 47.3768 24.7446Z" fill="#4285F4"/>
<path fill-rule="evenodd" clip-rule="evenodd" d="M24.196 48.3418C30.7155 48.3418 36.1814 46.1796 40.1765 42.4918L32.3728 36.4332C30.2106 37.882 27.4448 38.7381 24.196 38.7381C17.907 38.7381 12.5838 34.4906 10.685 28.7832H2.61792V35.0393C6.59109 42.9308 14.757 48.3418 24.196 48.3418Z" fill="#34A853"/>
<path fill-rule="evenodd" clip-rule="evenodd" d="M10.6853 28.7839C10.2024 27.3351 9.92799 25.7876 9.92799 24.1961C9.92799 22.6046 10.2024 21.0571 10.6853 19.6083V13.3522H2.61822C0.982855 16.612 0.0499268 20.2998 0.0499268 24.1961C0.0499268 28.0925 0.982855 31.7803 2.61822 35.04L10.6853 28.7839Z" fill="#FBBC05"/>
<path fill-rule="evenodd" clip-rule="evenodd" d="M24.196 9.65316C27.7411 9.65316 30.924 10.8715 33.4265 13.2641L40.3521 6.33853C36.1704 2.44218 30.7045 0.0494957 24.196 0.0494957C14.757 0.0494957 6.5911 5.46048 2.61792 13.3519L10.685 19.6081C12.5838 13.9007 17.907 9.65316 24.196 9.65316Z" fill="#EA4335"/>
</svg>
