<svg width="49" height="48" viewBox="0 0 49 48" fill="none" xmlns="http://www.w3.org/2000/svg">
<path d="M48.2927 24.1464C48.2927 10.8107 37.482 -5.65512e-06 24.1464 -5.65512e-06C10.8107 -5.65512e-06 0 10.8107 0 24.1464C0 36.1985 8.82998 46.1879 20.3735 47.9994V31.1262H14.2426V24.1464H20.3735V18.8266C20.3735 12.7749 23.9784 9.43217 29.4939 9.43217C32.1357 9.43217 34.899 9.90378 34.899 9.90378V15.846H31.8542C28.8547 15.846 27.9192 17.7073 27.9192 19.6169V24.1464H34.6161L33.5455 31.1262H27.9192V47.9994C39.4628 46.1879 48.2927 36.1985 48.2927 24.1464Z" fill="white"/>
</svg>
